<svg width="306" height="112" viewBox="0 0 306 112" fill="none" xmlns="http://www.w3.org/2000/svg">
<path d="M83.7263 65.6H109.766V69.84H83.7263V65.6ZM79.8463 76.76H113.366V81.12H79.8463V76.76ZM83.7263 51.56H109.486V55.88H89.0063V67.36H83.7263V51.56ZM143.083 48.48H148.403V85.64H143.083V48.48ZM137.283 61.84H144.163V66.12H137.283V61.84ZM118.683 72.68H121.723C127.723 72.68 132.483 72.56 137.843 71.64L138.323 75.96C132.843 76.88 127.883 77.08 121.723 77.08H118.683V72.68ZM118.603 51.64H135.283V65.56H123.963V74H118.683V61.36H130.043V55.88H118.603V51.64ZM161.72 51.16H165.76V55.36C165.76 61.72 163.44 67.88 157.52 70.44L154.8 66.52C159.8 64.32 161.72 59.68 161.72 55.36V51.16ZM163 51.16H167.04V55.36C167.04 59.6 168.84 64.44 174 66.76L171.72 71C165.24 68.32 163 61.64 163 55.36V51.16ZM176.44 51.16H180.44V55.36C180.44 61.72 178.2 68.36 171.72 71L169.48 66.76C174.6 64.48 176.44 59.68 176.44 55.36V51.16ZM177.76 51.16H181.8V55.36C181.8 59.84 183.68 64.36 188.72 66.52L185.96 70.44C180.04 67.92 177.76 61.88 177.76 55.36V51.16ZM155 76.68H188.52V81H155V76.68ZM217.957 48.52H223.277V69.96H217.957V48.52ZM194.717 50.84H199.997V66.16H194.717V50.84ZM194.717 63.56H197.917C203.557 63.56 209.197 63.2 215.077 62L215.677 66.28C209.597 67.56 203.757 67.92 197.917 67.92H194.717V63.56ZM210.757 70.48C218.517 70.48 223.437 73.32 223.437 78.04C223.437 82.76 218.517 85.56 210.757 85.56C202.997 85.56 198.077 82.76 198.077 78.04C198.077 73.32 202.997 70.48 210.757 70.48ZM210.757 74.72C205.957 74.72 203.397 75.76 203.397 78.04C203.397 80.28 205.957 81.36 210.757 81.36C215.557 81.36 218.117 80.28 218.117 78.04C218.117 75.76 215.557 74.72 210.757 74.72Z" fill="#2622F7"/>
<g clip-path="url(#clip0_524_495)">
<rect x="41" y="26" width="60" height="60" rx="30" fill="#2622F7"/>
<path d="M81.6391 63.4696H107.679V67.7096H81.6391V63.4696ZM77.7591 74.6296H111.279V78.9896H77.7591V74.6296ZM81.6391 49.4296H107.399V53.7496H86.9191V65.2296H81.6391V49.4296ZM140.996 46.3496H146.316V83.5096H140.996V46.3496ZM135.196 59.7096H142.076V63.9896H135.196V59.7096ZM116.596 70.5496H119.636C125.636 70.5496 130.396 70.4296 135.756 69.5096L136.236 73.8296C130.756 74.7496 125.796 74.9496 119.636 74.9496H116.596V70.5496ZM116.516 49.5096H133.196V63.4296H121.876V71.8696H116.596V59.2296H127.956V53.7496H116.516V49.5096ZM159.633 49.0296H163.673V53.2296C163.673 59.5896 161.353 65.7496 155.433 68.3096L152.713 64.3896C157.713 62.1896 159.633 57.5496 159.633 53.2296V49.0296ZM160.913 49.0296H164.953V53.2296C164.953 57.4696 166.753 62.3096 171.913 64.6296L169.633 68.8696C163.153 66.1896 160.913 59.5096 160.913 53.2296V49.0296ZM174.353 49.0296H178.353V53.2296C178.353 59.5896 176.113 66.2296 169.633 68.8696L167.393 64.6296C172.513 62.3496 174.353 57.5496 174.353 53.2296V49.0296ZM175.673 49.0296H179.713V53.2296C179.713 57.7096 181.593 62.2296 186.633 64.3896L183.873 68.3096C177.953 65.7896 175.673 59.7496 175.673 53.2296V49.0296ZM152.913 74.5496H186.433V78.8696H152.913V74.5496ZM215.87 46.3896H221.19V67.8296H215.87V46.3896ZM192.63 48.7096H197.91V64.0296H192.63V48.7096ZM192.63 61.4296H195.83C201.47 61.4296 207.11 61.0696 212.99 59.8696L213.59 64.1496C207.51 65.4296 201.67 65.7896 195.83 65.7896H192.63V61.4296ZM208.67 68.3496C216.43 68.3496 221.35 71.1896 221.35 75.9096C221.35 80.6296 216.43 83.4296 208.67 83.4296C200.91 83.4296 195.99 80.6296 195.99 75.9096C195.99 71.1896 200.91 68.3496 208.67 68.3496ZM208.67 72.5896C203.87 72.5896 201.31 73.6296 201.31 75.9096C201.31 78.1496 203.87 79.2296 208.67 79.2296C213.47 79.2296 216.03 78.1496 216.03 75.9096C216.03 73.6296 213.47 72.5896 208.67 72.5896Z" fill="white"/>
</g>
<defs>
<clipPath id="clip0_524_495">
<rect x="41" y="26" width="60" height="60" rx="30" fill="white"/>
</clipPath>
</defs>
</svg>
