<svg width="95" height="95" viewBox="0 0 95 95" fill="none" xmlns="http://www.w3.org/2000/svg">
<g filter="url(#filter0_d_479_191)">
<circle cx="47" cy="47" r="37" fill="white"/>
</g>
<path d="M27 44C25.3431 44 24 45.3431 24 47C24 48.6569 25.3431 50 27 50V44ZM68.2351 49.1213C69.4067 47.9497 69.4067 46.0503 68.2351 44.8787L49.1432 25.7868C47.9716 24.6152 46.0721 24.6152 44.9006 25.7868C43.729 26.9584 43.729 28.8579 44.9006 30.0294L61.8711 47L44.9006 63.9706C43.729 65.1421 43.729 67.0416 44.9006 68.2132C46.0721 69.3848 47.9716 69.3848 49.1432 68.2132L68.2351 49.1213ZM27 50H66.1138V44H27V50Z" fill="#2622F7"/>
<defs>
<filter id="filter0_d_479_191" x="1" y="1" width="92" height="92" filterUnits="userSpaceOnUse" color-interpolation-filters="sRGB">
<feFlood flood-opacity="0" result="BackgroundImageFix"/>
<feColorMatrix in="SourceAlpha" type="matrix" values="0 0 0 0 0 0 0 0 0 0 0 0 0 0 0 0 0 0 127 0" result="hardAlpha"/>
<feMorphology radius="5" operator="dilate" in="SourceAlpha" result="effect1_dropShadow_479_191"/>
<feOffset/>
<feGaussianBlur stdDeviation="2"/>
<feComposite in2="hardAlpha" operator="out"/>
<feColorMatrix type="matrix" values="0 0 0 0 0.254548 0 0 0 0 0.254548 0 0 0 0 0.254548 0 0 0 0.1 0"/>
<feBlend mode="normal" in2="BackgroundImageFix" result="effect1_dropShadow_479_191"/>
<feBlend mode="normal" in="SourceGraphic" in2="effect1_dropShadow_479_191" result="shape"/>
</filter>
</defs>
</svg>
